{"level":"info","message":"Take in completed!","timestamp":"2017-02-22T19:26:12.183Z"}
{"level":"info","message":"the path where the file is now:  temp/subtitleVideos/zQ06TSYn2Yghu-PJUNFDH802.mp4","timestamp":"2017-02-22T19:26:12.186Z"}
{"level":"info","message":"File should go to Dropbox at: /in/smallbuck.mp4","timestamp":"2017-02-22T19:26:12.186Z"}
{"level":"info","message":"Start upload to Dropbox.","timestamp":"2017-02-22T19:26:12.210Z"}
{"level":"info","message":"ffprobe worked, checking if metadata is available.","timestamp":"2017-02-22T19:26:12.463Z"}
{"streams":[{"index":0,"codec_name":"h264","codec_long_name":"H.264 / AVC / MPEG-4 AVC / MPEG-4 part 10","profile":"High","codec_type":"video","codec_time_base":"1/60","codec_tag_string":"avc1","codec_tag":"0x31637661","width":1920,"height":1080,"coded_width":1920,"coded_height":1088,"has_b_frames":2,"sample_aspect_ratio":"1:1","display_aspect_ratio":"16:9","pix_fmt":"yuv420p","level":41,"color_range":"N/A","color_space":"unknown","color_transfer":"unknown","color_primaries":"unknown","chroma_location":"left","timecode":"N/A","refs":4,"is_avc":1,"nal_length_size":4,"id":"N/A","r_frame_rate":"30/1","avg_frame_rate":"201840/6743","time_base":"1/30000","start_pts":"-23425","start_time":"-0.780833","duration_ts":842875,"duration":28.095833,"bit_rate":2097596,"max_bit_rate":"N/A","bits_per_raw_sample":8,"nb_frames":841,"nb_read_frames":"N/A","nb_read_packets":"N/A","tags":{"creation_time":"2017-01-10 22:54:28","language":"und","handler_name":"Core Media Video"},"disposition":{"default":1,"dub":0,"original":0,"comment":0,"lyrics":0,"karaoke":0,"forced":0,"hearing_impaired":0,"visual_impaired":0,"clean_effects":0,"attached_pic":0}},{"index":1,"codec_name":"ac3","codec_long_name":"ATSC A/52A (AC-3)","profile":"unknown","codec_type":"audio","codec_time_base":"1/48000","codec_tag_string":"ac-3","codec_tag":"0x332d6361","sample_fmt":"fltp","sample_rate":48000,"channels":6,"channel_layout":"5.1(side)","bits_per_sample":0,"dmix_mode":"-1","ltrt_cmixlev":"-1.000000","ltrt_surmixlev":"-1.000000","loro_cmixlev":"-1.000000","loro_surmixlev":"-1.000000","id":"N/A","r_frame_rate":"0/0","avg_frame_rate":"0/0","time_base":"1/48000","start_pts":"-809","start_time":"-0.016854","duration_ts":1310208,"duration":27.296,"bit_rate":320000,"max_bit_rate":"N/A","bits_per_raw_sample":"N/A","nb_frames":853,"nb_read_frames":"N/A","nb_read_packets":"N/A","tags":{"creation_time":"2017-01-10 22:54:28","language":"und","handler_name":"Core Media Audio"},"disposition":{"default":1,"dub":0,"original":0,"comment":0,"lyrics":0,"karaoke":0,"forced":0,"hearing_impaired":0,"visual_impaired":0,"clean_effects":0,"attached_pic":0}}],"format":{"filename":"temp/subtitleVideos/zQ06TSYn2Yghu-PJUNFDH802.mp4","nb_streams":2,"nb_programs":0,"format_name":"mov,mp4,m4a,3gp,3g2,mj2","format_long_name":"QuickTime / MOV","start_time":"-0.780833","duration":27.248333,"size":8469229,"bit_rate":2486531,"probe_score":100,"tags":{"major_brand":"mp42","minor_version":"1","compatible_brands":"mp41mp42isom","creation_time":"2017-01-10 22:54:28"}},"level":"info","message":"Metadata is available. Metadata: ","timestamp":"2017-02-22T19:26:12.464Z"}
{"level":"info","message":"Looping through metadata, checking if codec_type = video","timestamp":"2017-02-22T19:26:12.466Z"}
{"level":"info","message":"Checking stream 0 for metadata.","timestamp":"2017-02-22T19:26:12.466Z"}
{"level":"info","message":"Found a stream with codec Video. Stream 0","timestamp":"2017-02-22T19:26:12.466Z"}
{"level":"info","message":"Checking stream 0 for width and height.","timestamp":"2017-02-22T19:26:12.466Z"}
{"level":"info","message":"video width 1920","timestamp":"2017-02-22T19:26:12.467Z"}
{"level":"info","message":"video height 1080","timestamp":"2017-02-22T19:26:12.467Z"}
{"level":"info","message":"got everything, let's send this back for saving.","timestamp":"2017-02-22T19:26:12.467Z"}
{"level":"info","message":"Checking stream 1 for metadata.","timestamp":"2017-02-22T19:26:12.475Z"}
{"level":"info","message":"Started creating Low Res version.","timestamp":"2017-02-22T19:26:12.619Z"}
{"frames":167,"currentFps":0,"currentKbps":245.7,"targetSize":205,"timemark":"00:00:06.84","percent":25.102453056486063,"level":"info","message":"creating low res version","timestamp":"2017-02-22T19:26:13.199Z"}
{"frames":347,"currentFps":347,"currentKbps":403.5,"targetSize":633,"timemark":"00:00:12.85","percent":47.15884821284297,"level":"info","message":"creating low res version","timestamp":"2017-02-22T19:26:13.697Z"}
{"frames":584,"currentFps":389,"currentKbps":420.5,"targetSize":1066,"timemark":"00:00:20.76","percent":76.18814699600156,"level":"info","message":"creating low res version","timestamp":"2017-02-22T19:26:14.199Z"}
{"frames":727,"currentFps":363,"currentKbps":429,"targetSize":1335,"timemark":"00:00:25.49","percent":93.54700707746048,"level":"info","message":"creating low res version","timestamp":"2017-02-22T19:26:14.700Z"}
{"level":"info","message":"finished ffmpeg command","timestamp":"2017-02-22T19:26:15.197Z"}
{"level":"info","message":"reading file from temp location temp/subtitleVideos/smallbuck_small.mp4","timestamp":"2017-02-22T19:26:15.197Z"}
{"level":"info","message":"starting upload low res version /in/smallbuck_small.mp4","timestamp":"2017-02-22T19:26:15.198Z"}
{"level":"crit","message":"Error parsing form: Error: Request aborted\n    at IncomingMessage.onReqAborted (/Users/maartenlauwaert/Documents/Dev/appFunkyVideos/node_modules/multiparty/index.js:183:17)\n    at emitNone (events.js:80:13)\n    at IncomingMessage.emit (events.js:179:7)\n    at abortIncoming (_http_server.js:280:11)\n    at Socket.serverSocketCloseListener (_http_server.js:293:5)\n    at emitOne (events.js:95:20)\n    at Socket.emit (events.js:182:7)\n    at TCP._onclose (net.js:471:12)","timestamp":"2017-02-22T19:28:00.875Z"}
{"level":"info","message":"Take in completed!","timestamp":"2017-02-22T19:28:00.993Z"}
{"level":"info","message":"the path where the file is now:  temp/subtitleVideos/cS98qJLCjnsMKke5rrhIiJzv.mp4","timestamp":"2017-02-22T19:28:00.994Z"}
{"level":"info","message":"File should go to Dropbox at: /in/smallbuck.mp4","timestamp":"2017-02-22T19:28:00.994Z"}
{"level":"info","message":"Start upload to Dropbox.","timestamp":"2017-02-22T19:28:01.009Z"}
{"level":"info","message":"ffprobe worked, checking if metadata is available.","timestamp":"2017-02-22T19:28:01.134Z"}
{"streams":[{"index":0,"codec_name":"h264","codec_long_name":"H.264 / AVC / MPEG-4 AVC / MPEG-4 part 10","profile":"High","codec_type":"video","codec_time_base":"1/60","codec_tag_string":"avc1","codec_tag":"0x31637661","width":1920,"height":1080,"coded_width":1920,"coded_height":1088,"has_b_frames":2,"sample_aspect_ratio":"1:1","display_aspect_ratio":"16:9","pix_fmt":"yuv420p","level":41,"color_range":"N/A","color_space":"unknown","color_transfer":"unknown","color_primaries":"unknown","chroma_location":"left","timecode":"N/A","refs":4,"is_avc":1,"nal_length_size":4,"id":"N/A","r_frame_rate":"30/1","avg_frame_rate":"201840/6743","time_base":"1/30000","start_pts":"-23425","start_time":"-0.780833","duration_ts":842875,"duration":28.095833,"bit_rate":2097596,"max_bit_rate":"N/A","bits_per_raw_sample":8,"nb_frames":841,"nb_read_frames":"N/A","nb_read_packets":"N/A","tags":{"creation_time":"2017-01-10 22:54:28","language":"und","handler_name":"Core Media Video"},"disposition":{"default":1,"dub":0,"original":0,"comment":0,"lyrics":0,"karaoke":0,"forced":0,"hearing_impaired":0,"visual_impaired":0,"clean_effects":0,"attached_pic":0}},{"index":1,"codec_name":"ac3","codec_long_name":"ATSC A/52A (AC-3)","profile":"unknown","codec_type":"audio","codec_time_base":"1/48000","codec_tag_string":"ac-3","codec_tag":"0x332d6361","sample_fmt":"fltp","sample_rate":48000,"channels":6,"channel_layout":"5.1(side)","bits_per_sample":0,"dmix_mode":"-1","ltrt_cmixlev":"-1.000000","ltrt_surmixlev":"-1.000000","loro_cmixlev":"-1.000000","loro_surmixlev":"-1.000000","id":"N/A","r_frame_rate":"0/0","avg_frame_rate":"0/0","time_base":"1/48000","start_pts":"-809","start_time":"-0.016854","duration_ts":1310208,"duration":27.296,"bit_rate":320000,"max_bit_rate":"N/A","bits_per_raw_sample":"N/A","nb_frames":853,"nb_read_frames":"N/A","nb_read_packets":"N/A","tags":{"creation_time":"2017-01-10 22:54:28","language":"und","handler_name":"Core Media Audio"},"disposition":{"default":1,"dub":0,"original":0,"comment":0,"lyrics":0,"karaoke":0,"forced":0,"hearing_impaired":0,"visual_impaired":0,"clean_effects":0,"attached_pic":0}}],"format":{"filename":"temp/subtitleVideos/cS98qJLCjnsMKke5rrhIiJzv.mp4","nb_streams":2,"nb_programs":0,"format_name":"mov,mp4,m4a,3gp,3g2,mj2","format_long_name":"QuickTime / MOV","start_time":"-0.780833","duration":27.248333,"size":8469229,"bit_rate":2486531,"probe_score":100,"tags":{"major_brand":"mp42","minor_version":"1","compatible_brands":"mp41mp42isom","creation_time":"2017-01-10 22:54:28"}},"level":"info","message":"Metadata is available. Metadata: ","timestamp":"2017-02-22T19:28:01.135Z"}
{"level":"info","message":"Looping through metadata, checking if codec_type = video","timestamp":"2017-02-22T19:28:01.136Z"}
{"level":"info","message":"Checking stream 0 for metadata.","timestamp":"2017-02-22T19:28:01.136Z"}
{"level":"info","message":"Found a stream with codec Video. Stream 0","timestamp":"2017-02-22T19:28:01.136Z"}
{"level":"info","message":"Checking stream 0 for width and height.","timestamp":"2017-02-22T19:28:01.136Z"}
{"level":"info","message":"video width 1920","timestamp":"2017-02-22T19:28:01.137Z"}
{"level":"info","message":"video height 1080","timestamp":"2017-02-22T19:28:01.137Z"}
{"level":"info","message":"got everything, let's send this back for saving.","timestamp":"2017-02-22T19:28:01.137Z"}
{"level":"info","message":"Checking stream 1 for metadata.","timestamp":"2017-02-22T19:28:01.155Z"}
{"level":"info","message":"Started creating Low Res version.","timestamp":"2017-02-22T19:28:01.160Z"}
{"frames":159,"currentFps":0,"currentKbps":241.7,"targetSize":194,"timemark":"00:00:06.58","percent":24.148266244397412,"level":"info","message":"creating low res version","timestamp":"2017-02-22T19:28:01.734Z"}
{"frames":346,"currentFps":346,"currentKbps":403.3,"targetSize":632,"timemark":"00:00:12.82","percent":47.048749734525046,"level":"info","message":"creating low res version","timestamp":"2017-02-22T19:28:02.234Z"}
{"frames":575,"currentFps":383,"currentKbps":420.9,"targetSize":1050,"timemark":"00:00:20.44","percent":75.01376322727707,"level":"info","message":"creating low res version","timestamp":"2017-02-22T19:28:02.735Z"}
{"frames":740,"currentFps":369,"currentKbps":430.8,"targetSize":1365,"timemark":"00:00:25.94","percent":95.1984842522293,"level":"info","message":"creating low res version","timestamp":"2017-02-22T19:28:03.236Z"}
{"level":"info","message":"finished ffmpeg command","timestamp":"2017-02-22T19:28:03.591Z"}
{"level":"info","message":"reading file from temp location temp/subtitleVideos/smallbuck_small.mp4","timestamp":"2017-02-22T19:28:03.591Z"}
{"level":"info","message":"starting upload low res version /in/smallbuck_small.mp4","timestamp":"2017-02-22T19:28:03.592Z"}
{"level":"crit","message":"Error parsing form: Error: Request aborted\n    at IncomingMessage.onReqAborted (/Users/maartenlauwaert/Documents/Dev/appFunkyVideos/node_modules/multiparty/index.js:183:17)\n    at emitNone (events.js:80:13)\n    at IncomingMessage.emit (events.js:179:7)\n    at abortIncoming (_http_server.js:280:11)\n    at Socket.socketOnEnd (_http_server.js:425:7)\n    at emitNone (events.js:85:20)\n    at Socket.emit (events.js:179:7)\n    at endReadableNT (_stream_readable.js:906:12)\n    at nextTickCallbackWith2Args (node.js:475:9)\n    at process._tickCallback (node.js:389:17)","timestamp":"2017-02-22T19:28:52.689Z"}
{"name":"smallbuck_small.mp4","path_lower":"/in/smallbuck_small.mp4","path_display":"/in/smallbuck_small.mp4","id":"id:42wfbX-DZEAAAAAAAABLfQ","client_modified":"2017-02-21T13:36:16Z","server_modified":"2017-02-21T13:36:16Z","rev":"1066145a64fe9","size":1733488,"content_hash":"bb95b18e2db68958b2499ce6cc1ef03ddf30954b88f5eac3b9960638212120cf","level":"info","message":"done uploading the small file","timestamp":"2017-02-22T19:30:10.178Z"}
{"level":"info","message":"Get the temp link of the small file","timestamp":"2017-02-22T19:30:10.178Z"}
{"level":"info","message":"undefined","timestamp":"2017-02-22T19:30:10.182Z"}
{"dev":16777220,"mode":33188,"nlink":1,"uid":501,"gid":20,"rdev":0,"blksize":4096,"ino":133976463,"size":1733488,"blocks":3392,"atime":"2017-02-22T19:28:03.000Z","mtime":"2017-02-22T19:28:03.000Z","ctime":"2017-02-22T19:28:03.000Z","birthtime":"2017-02-22T19:26:12.000Z","level":"info","message":"","timestamp":"2017-02-22T19:30:10.198Z"}
{"level":"info","message":"file deleted successfully","timestamp":"2017-02-22T19:30:10.198Z"}
{"level":"info","message":"Take in completed!","timestamp":"2017-02-22T19:36:02.338Z"}
{"level":"info","message":"the path where the file is now:  temp/subtitleVideos/K5iBra7Icqvn0YT0NQILV-xJ.mp4","timestamp":"2017-02-22T19:36:02.340Z"}
{"level":"info","message":"File should go to Dropbox at: /in/smallbuck.mp4","timestamp":"2017-02-22T19:36:02.340Z"}
{"level":"info","message":"Start upload to Dropbox.","timestamp":"2017-02-22T19:36:02.370Z"}
{"level":"info","message":"ffprobe worked, checking if metadata is available.","timestamp":"2017-02-22T19:36:02.596Z"}
{"streams":[{"index":0,"codec_name":"h264","codec_long_name":"H.264 / AVC / MPEG-4 AVC / MPEG-4 part 10","profile":"High","codec_type":"video","codec_time_base":"1/60","codec_tag_string":"avc1","codec_tag":"0x31637661","width":1920,"height":1080,"coded_width":1920,"coded_height":1088,"has_b_frames":2,"sample_aspect_ratio":"1:1","display_aspect_ratio":"16:9","pix_fmt":"yuv420p","level":41,"color_range":"N/A","color_space":"unknown","color_transfer":"unknown","color_primaries":"unknown","chroma_location":"left","timecode":"N/A","refs":4,"is_avc":1,"nal_length_size":4,"id":"N/A","r_frame_rate":"30/1","avg_frame_rate":"201840/6743","time_base":"1/30000","start_pts":"-23425","start_time":"-0.780833","duration_ts":842875,"duration":28.095833,"bit_rate":2097596,"max_bit_rate":"N/A","bits_per_raw_sample":8,"nb_frames":841,"nb_read_frames":"N/A","nb_read_packets":"N/A","tags":{"creation_time":"2017-01-10 22:54:28","language":"und","handler_name":"Core Media Video"},"disposition":{"default":1,"dub":0,"original":0,"comment":0,"lyrics":0,"karaoke":0,"forced":0,"hearing_impaired":0,"visual_impaired":0,"clean_effects":0,"attached_pic":0}},{"index":1,"codec_name":"ac3","codec_long_name":"ATSC A/52A (AC-3)","profile":"unknown","codec_type":"audio","codec_time_base":"1/48000","codec_tag_string":"ac-3","codec_tag":"0x332d6361","sample_fmt":"fltp","sample_rate":48000,"channels":6,"channel_layout":"5.1(side)","bits_per_sample":0,"dmix_mode":"-1","ltrt_cmixlev":"-1.000000","ltrt_surmixlev":"-1.000000","loro_cmixlev":"-1.000000","loro_surmixlev":"-1.000000","id":"N/A","r_frame_rate":"0/0","avg_frame_rate":"0/0","time_base":"1/48000","start_pts":"-809","start_time":"-0.016854","duration_ts":1310208,"duration":27.296,"bit_rate":320000,"max_bit_rate":"N/A","bits_per_raw_sample":"N/A","nb_frames":853,"nb_read_frames":"N/A","nb_read_packets":"N/A","tags":{"creation_time":"2017-01-10 22:54:28","language":"und","handler_name":"Core Media Audio"},"disposition":{"default":1,"dub":0,"original":0,"comment":0,"lyrics":0,"karaoke":0,"forced":0,"hearing_impaired":0,"visual_impaired":0,"clean_effects":0,"attached_pic":0}}],"format":{"filename":"temp/subtitleVideos/K5iBra7Icqvn0YT0NQILV-xJ.mp4","nb_streams":2,"nb_programs":0,"format_name":"mov,mp4,m4a,3gp,3g2,mj2","format_long_name":"QuickTime / MOV","start_time":"-0.780833","duration":27.248333,"size":8469229,"bit_rate":2486531,"probe_score":100,"tags":{"major_brand":"mp42","minor_version":"1","compatible_brands":"mp41mp42isom","creation_time":"2017-01-10 22:54:28"}},"level":"info","message":"Metadata is available. Metadata: ","timestamp":"2017-02-22T19:36:02.598Z"}
{"level":"info","message":"Looping through metadata, checking if codec_type = video","timestamp":"2017-02-22T19:36:02.599Z"}
{"level":"info","message":"Checking stream 0 for metadata.","timestamp":"2017-02-22T19:36:02.599Z"}
{"level":"info","message":"Found a stream with codec Video. Stream 0","timestamp":"2017-02-22T19:36:02.599Z"}
{"level":"info","message":"Checking stream 0 for width and height.","timestamp":"2017-02-22T19:36:02.599Z"}
{"level":"info","message":"video width 1920","timestamp":"2017-02-22T19:36:02.600Z"}
{"level":"info","message":"video height 1080","timestamp":"2017-02-22T19:36:02.600Z"}
{"level":"info","message":"got everything, let's send this back for saving.","timestamp":"2017-02-22T19:36:02.600Z"}
{"level":"info","message":"Checking stream 1 for metadata.","timestamp":"2017-02-22T19:36:02.607Z"}
{"level":"info","message":"Started creating Low Res version.","timestamp":"2017-02-22T19:36:02.742Z"}
{"frames":159,"currentFps":0,"currentKbps":241.7,"targetSize":194,"timemark":"00:00:06.58","percent":24.148266244397412,"level":"info","message":"creating low res version","timestamp":"2017-02-22T19:36:03.320Z"}
{"frames":317,"currentFps":316,"currentKbps":398.9,"targetSize":576,"timemark":"00:00:11.83","percent":43.41549995003364,"level":"info","message":"creating low res version","timestamp":"2017-02-22T19:36:03.822Z"}
{"frames":508,"currentFps":337,"currentKbps":423.6,"targetSize":941,"timemark":"00:00:18.20","percent":66.79307684620561,"level":"info","message":"creating low res version","timestamp":"2017-02-22T19:36:04.323Z"}
{"frames":702,"currentFps":349,"currentKbps":426.2,"targetSize":1283,"timemark":"00:00:24.66","percent":90.50094917733132,"level":"info","message":"creating low res version","timestamp":"2017-02-22T19:36:04.826Z"}
{"level":"info","message":"finished ffmpeg command","timestamp":"2017-02-22T19:36:05.235Z"}
{"level":"info","message":"reading file from temp location temp/subtitleVideos/smallbuck_small.mp4","timestamp":"2017-02-22T19:36:05.235Z"}
{"level":"info","message":"starting upload low res version /in/smallbuck_small.mp4","timestamp":"2017-02-22T19:36:05.236Z"}
{"level":"crit","message":"Error parsing form: Error: Request aborted\n    at IncomingMessage.onReqAborted (/Users/maartenlauwaert/Documents/Dev/appFunkyVideos/node_modules/multiparty/index.js:183:17)\n    at emitNone (events.js:80:13)\n    at IncomingMessage.emit (events.js:179:7)\n    at abortIncoming (_http_server.js:280:11)\n    at Socket.serverSocketCloseListener (_http_server.js:293:5)\n    at emitOne (events.js:95:20)\n    at Socket.emit (events.js:182:7)\n    at TCP._onclose (net.js:471:12)","timestamp":"2017-02-22T19:37:55.226Z"}
{"level":"info","message":"Take in completed!","timestamp":"2017-02-22T19:37:55.368Z"}
{"level":"info","message":"the path where the file is now:  temp/subtitleVideos/zTQKjcG6uwyPXXsCnEBIqcZG.mp4","timestamp":"2017-02-22T19:37:55.368Z"}
{"level":"info","message":"File should go to Dropbox at: /in/smallbuck.mp4","timestamp":"2017-02-22T19:37:55.368Z"}
{"level":"info","message":"Start upload to Dropbox.","timestamp":"2017-02-22T19:37:55.382Z"}
{"level":"info","message":"ffprobe worked, checking if metadata is available.","timestamp":"2017-02-22T19:37:55.505Z"}
{"streams":[{"index":0,"codec_name":"h264","codec_long_name":"H.264 / AVC / MPEG-4 AVC / MPEG-4 part 10","profile":"High","codec_type":"video","codec_time_base":"1/60","codec_tag_string":"avc1","codec_tag":"0x31637661","width":1920,"height":1080,"coded_width":1920,"coded_height":1088,"has_b_frames":2,"sample_aspect_ratio":"1:1","display_aspect_ratio":"16:9","pix_fmt":"yuv420p","level":41,"color_range":"N/A","color_space":"unknown","color_transfer":"unknown","color_primaries":"unknown","chroma_location":"left","timecode":"N/A","refs":4,"is_avc":1,"nal_length_size":4,"id":"N/A","r_frame_rate":"30/1","avg_frame_rate":"201840/6743","time_base":"1/30000","start_pts":"-23425","start_time":"-0.780833","duration_ts":842875,"duration":28.095833,"bit_rate":2097596,"max_bit_rate":"N/A","bits_per_raw_sample":8,"nb_frames":841,"nb_read_frames":"N/A","nb_read_packets":"N/A","tags":{"creation_time":"2017-01-10 22:54:28","language":"und","handler_name":"Core Media Video"},"disposition":{"default":1,"dub":0,"original":0,"comment":0,"lyrics":0,"karaoke":0,"forced":0,"hearing_impaired":0,"visual_impaired":0,"clean_effects":0,"attached_pic":0}},{"index":1,"codec_name":"ac3","codec_long_name":"ATSC A/52A (AC-3)","profile":"unknown","codec_type":"audio","codec_time_base":"1/48000","codec_tag_string":"ac-3","codec_tag":"0x332d6361","sample_fmt":"fltp","sample_rate":48000,"channels":6,"channel_layout":"5.1(side)","bits_per_sample":0,"dmix_mode":"-1","ltrt_cmixlev":"-1.000000","ltrt_surmixlev":"-1.000000","loro_cmixlev":"-1.000000","loro_surmixlev":"-1.000000","id":"N/A","r_frame_rate":"0/0","avg_frame_rate":"0/0","time_base":"1/48000","start_pts":"-809","start_time":"-0.016854","duration_ts":1310208,"duration":27.296,"bit_rate":320000,"max_bit_rate":"N/A","bits_per_raw_sample":"N/A","nb_frames":853,"nb_read_frames":"N/A","nb_read_packets":"N/A","tags":{"creation_time":"2017-01-10 22:54:28","language":"und","handler_name":"Core Media Audio"},"disposition":{"default":1,"dub":0,"original":0,"comment":0,"lyrics":0,"karaoke":0,"forced":0,"hearing_impaired":0,"visual_impaired":0,"clean_effects":0,"attached_pic":0}}],"format":{"filename":"temp/subtitleVideos/zTQKjcG6uwyPXXsCnEBIqcZG.mp4","nb_streams":2,"nb_programs":0,"format_name":"mov,mp4,m4a,3gp,3g2,mj2","format_long_name":"QuickTime / MOV","start_time":"-0.780833","duration":27.248333,"size":8469229,"bit_rate":2486531,"probe_score":100,"tags":{"major_brand":"mp42","minor_version":"1","compatible_brands":"mp41mp42isom","creation_time":"2017-01-10 22:54:28"}},"level":"info","message":"Metadata is available. Metadata: ","timestamp":"2017-02-22T19:37:55.505Z"}
{"level":"info","message":"Looping through metadata, checking if codec_type = video","timestamp":"2017-02-22T19:37:55.509Z"}
{"level":"info","message":"Checking stream 0 for metadata.","timestamp":"2017-02-22T19:37:55.509Z"}
{"level":"info","message":"Found a stream with codec Video. Stream 0","timestamp":"2017-02-22T19:37:55.509Z"}
{"level":"info","message":"Checking stream 0 for width and height.","timestamp":"2017-02-22T19:37:55.509Z"}
{"level":"info","message":"video width 1920","timestamp":"2017-02-22T19:37:55.509Z"}
{"level":"info","message":"video height 1080","timestamp":"2017-02-22T19:37:55.509Z"}
{"level":"info","message":"got everything, let's send this back for saving.","timestamp":"2017-02-22T19:37:55.510Z"}
{"level":"info","message":"Checking stream 1 for metadata.","timestamp":"2017-02-22T19:37:55.516Z"}
{"level":"info","message":"Started creating Low Res version.","timestamp":"2017-02-22T19:37:55.521Z"}
{"frames":156,"currentFps":0,"currentKbps":239.6,"targetSize":190,"timemark":"00:00:06.49","percent":23.817970809443647,"level":"info","message":"creating low res version","timestamp":"2017-02-22T19:37:56.098Z"}
{"frames":320,"currentFps":319,"currentKbps":397.9,"targetSize":581,"timemark":"00:00:11.96","percent":43.89259335607797,"level":"info","message":"creating low res version","timestamp":"2017-02-22T19:37:56.600Z"}
{"frames":484,"currentFps":322,"currentKbps":424.5,"targetSize":902,"timemark":"00:00:17.40","percent":63.85711742439436,"level":"info","message":"creating low res version","timestamp":"2017-02-22T19:37:57.102Z"}
{"frames":648,"currentFps":323,"currentKbps":418.7,"targetSize":1169,"timemark":"00:00:22.87","percent":83.93173997102869,"level":"info","message":"creating low res version","timestamp":"2017-02-22T19:37:57.604Z"}
{"frames":821,"currentFps":327,"currentKbps":452.1,"targetSize":1548,"timemark":"00:00:28.05","percent":102.94207722725643,"level":"info","message":"creating low res version","timestamp":"2017-02-22T19:37:58.109Z"}
{"level":"info","message":"finished ffmpeg command","timestamp":"2017-02-22T19:37:58.255Z"}
{"level":"info","message":"reading file from temp location temp/subtitleVideos/smallbuck_small.mp4","timestamp":"2017-02-22T19:37:58.256Z"}
{"level":"info","message":"starting upload low res version /in/smallbuck_small.mp4","timestamp":"2017-02-22T19:37:58.257Z"}
{"name":"smallbuck_small.mp4","path_lower":"/in/smallbuck_small.mp4","path_display":"/in/smallbuck_small.mp4","id":"id:42wfbX-DZEAAAAAAAABLfQ","client_modified":"2017-02-21T13:36:16Z","server_modified":"2017-02-21T13:36:16Z","rev":"1066145a64fe9","size":1733488,"content_hash":"bb95b18e2db68958b2499ce6cc1ef03ddf30954b88f5eac3b9960638212120cf","level":"info","message":"done uploading the small file","timestamp":"2017-02-22T19:38:00.621Z"}
{"level":"info","message":"Get the temp link of the small file","timestamp":"2017-02-22T19:38:00.622Z"}
{"dev":16777220,"mode":33188,"nlink":1,"uid":501,"gid":20,"rdev":0,"blksize":4096,"ino":133977489,"size":1733488,"blocks":3392,"atime":"2017-02-22T19:37:58.000Z","mtime":"2017-02-22T19:37:58.000Z","ctime":"2017-02-22T19:37:58.000Z","birthtime":"2017-02-22T19:36:02.000Z","level":"info","message":"","timestamp":"2017-02-22T19:38:00.625Z"}
{"level":"info","message":"undefined","timestamp":"2017-02-22T19:38:00.626Z"}
{"level":"info","message":"file deleted successfully","timestamp":"2017-02-22T19:38:00.643Z"}
{"metadata":{"name":"smallbuck_small.mp4","path_lower":"/in/smallbuck_small.mp4","path_display":"/in/smallbuck_small.mp4","id":"id:42wfbX-DZEAAAAAAAABLfQ","client_modified":"2017-02-21T13:36:16Z","server_modified":"2017-02-21T13:36:16Z","rev":"1066145a64fe9","size":1733488,"content_hash":"bb95b18e2db68958b2499ce6cc1ef03ddf30954b88f5eac3b9960638212120cf"},"link":"https://dl.dropboxusercontent.com/apitl/1/AACh9S7pbXyrs96ZfWin4EYDH6ucT2fs0_OocFSknqzhpnCfCUfiLnq9H33QEp4pmV2uQBswiVisNICCu3MG8SMQQlWZ9EW9epp50yeCLo5cnq0RWnw8jBRohvGOYEk0-DLWP4AgUy0rn7ga4GEoCRdV0QUk_Nsf4HIVkBMgKyhd3jvNLpQb4qO12ZNd24zkZ7bNsTTZWdYk6kjmUQ8J5Qa_utKwd3RZ302UuLsjvpyvFxN3qkulv3GveDtEedGB2Kk","level":"info","message":"got temporary url","timestamp":"2017-02-22T19:39:11.644Z"}
{"level":"crit","message":"Error parsing form: Error: Request aborted\n    at IncomingMessage.onReqAborted (/Users/maartenlauwaert/Documents/Dev/appFunkyVideos/node_modules/multiparty/index.js:183:17)\n    at emitNone (events.js:80:13)\n    at IncomingMessage.emit (events.js:179:7)\n    at abortIncoming (_http_server.js:280:11)\n    at Socket.serverSocketCloseListener (_http_server.js:293:5)\n    at emitOne (events.js:95:20)\n    at Socket.emit (events.js:182:7)\n    at TCP._onclose (net.js:471:12)","timestamp":"2017-02-22T19:39:55.225Z"}
{"name":"smallbuck_small.mp4","path_lower":"/in/smallbuck_small.mp4","path_display":"/in/smallbuck_small.mp4","id":"id:42wfbX-DZEAAAAAAAABLfQ","client_modified":"2017-02-21T13:36:16Z","server_modified":"2017-02-21T13:36:16Z","rev":"1066145a64fe9","size":1733488,"content_hash":"bb95b18e2db68958b2499ce6cc1ef03ddf30954b88f5eac3b9960638212120cf","level":"info","message":"done uploading the small file","timestamp":"2017-02-22T19:40:19.391Z"}
{"level":"info","message":"Get the temp link of the small file","timestamp":"2017-02-22T19:40:19.391Z"}
{"level":"info","message":"undefined","timestamp":"2017-02-22T19:40:19.394Z"}
{"level":"info","message":"undefined","timestamp":"2017-02-22T19:40:19.394Z"}
{"metadata":{"name":"smallbuck_small.mp4","path_lower":"/in/smallbuck_small.mp4","path_display":"/in/smallbuck_small.mp4","id":"id:42wfbX-DZEAAAAAAAABLfQ","client_modified":"2017-02-21T13:36:16Z","server_modified":"2017-02-21T13:36:16Z","rev":"1066145a64fe9","size":1733488,"content_hash":"bb95b18e2db68958b2499ce6cc1ef03ddf30954b88f5eac3b9960638212120cf"},"link":"https://dl.dropboxusercontent.com/apitl/1/AABGtO9IoUFh6Cle3G6yUX1-E-_1_E7jh_lDry3-L_DkKumSIc65VBJuu8oUP2IQN9RH1qo96QH21q4A13Wvd4G0r0MR6oVuhvl-c9TPqYs-zoRo-ETRp3LSm5CR3I4z9BOlHkbZxv30OREBIsjASyyfvgzeCYFdBEBt9H8R7M05eDyLf9MlkY984bH3gerix8tchpBcmRzmxwDbpcV9KmeZleFtB7OkP28chg76A8jMTIhI4jjnE7bABHBf4wqzFTI","level":"info","message":"got temporary url","timestamp":"2017-02-22T19:40:58.667Z"}
